<svg width="121" height="24" viewBox="0 0 121 24" fill="none" xmlns="http://www.w3.org/2000/svg">
<path fill-rule="evenodd" clip-rule="evenodd" d="M17.3232 8.66162V8.6616C17.3232 3.87793 13.4453 0 8.66162 0C3.87794 0 0 3.87793 0 8.6616V8.66162H3.60742V8.66149C3.60742 5.87101 5.86955 3.60889 8.66003 3.60889C11.4505 3.60889 13.7126 5.87101 13.7126 8.66149V8.66162H17.3232ZM1.84779 14.0097L4.68606 11.7822C5.61115 12.9586 7.04736 13.7141 8.66003 13.7141C10.2736 13.7141 11.7106 12.9577 12.6356 11.7801L15.4758 14.0092C13.89 16.0271 11.4272 17.3232 8.66162 17.3232C5.89628 17.3232 3.43362 16.0273 1.84779 14.0097ZM86.8289 10.5814C86.8289 11.8381 86.4688 12.8261 85.7486 13.5454C85.0281 14.2647 84.1894 14.6242 83.2316 14.6242C82.2739 14.6242 81.435 14.2609 80.7147 13.533C79.9942 12.8055 79.6344 11.8134 79.6344 10.5567C79.6344 9.30029 79.9904 8.3161 80.7024 7.60501C81.4147 6.89421 82.2533 6.53852 83.2193 6.53852C84.185 6.53852 85.0281 6.89832 85.7486 7.61736C86.4688 8.33668 86.8289 9.32528 86.8289 10.5814ZM76.123 10.5567C76.123 12.6238 76.7327 14.3229 77.9524 15.6537C79.1714 16.9848 80.6983 17.6503 82.5317 17.6503C84.3649 17.6503 85.7976 16.8154 86.8289 15.1451V17.4519H90.2668V0H86.8289V5.84418C85.8467 4.29 84.4225 3.51247 82.5564 3.51247C80.69 3.51247 79.1514 4.16977 77.94 5.48437C76.7283 6.79897 76.123 8.48984 76.123 10.5567ZM74.9924 2.76832H68.5586V7.3071H74.2575V9.98509H68.5605V14.7737H74.9924V17.4517H65.0977V12.3793H65.0957V0.460641H65.0977V0.090332H74.9924V2.76832ZM28.8163 13.5332C29.5283 12.8056 29.8846 11.8135 29.8846 10.5568C29.8846 9.30043 29.5283 8.31624 28.8163 7.60515C28.1043 6.89435 27.2651 6.53865 26.2994 6.53865C25.3332 6.53865 24.4945 6.89846 23.7825 7.61749C23.0705 8.33682 22.7145 9.32541 22.7145 10.5815C22.7145 11.8382 23.0705 12.8262 23.7825 13.5455C24.4945 14.2649 25.3332 14.6244 26.2994 14.6244C27.2651 14.6244 28.1043 14.261 28.8163 13.5332ZM22.7145 5.84432C23.6799 4.29014 25.0962 3.51261 26.9623 3.51261C28.8287 3.51261 30.367 4.16991 31.5787 5.48451C32.7901 6.7991 33.396 8.49409 33.396 10.5692C33.396 12.6445 32.7901 14.3436 31.5787 15.6662C30.367 16.9893 28.8407 17.6504 26.9993 17.6504C25.1577 17.6504 23.7293 16.8156 22.7145 15.1453V24H19.252V3.71103H22.7145V5.84432ZM43.8673 7.28276C43.2535 6.73716 42.5127 6.46437 41.6449 6.46437C40.7771 6.46437 40.0528 6.73716 39.4719 7.28276C38.8908 7.82835 38.5427 8.5562 38.4284 9.46543H44.8617C44.8126 8.5562 44.481 7.82835 43.8673 7.28276ZM41.5958 17.6505C39.6151 17.6505 38.0024 17.0017 36.7587 15.7036C35.5143 14.4055 34.8926 12.6899 34.8926 10.5569C34.8926 8.42362 35.5187 6.71659 36.771 5.43491C38.0233 4.15353 39.6439 3.5127 41.6328 3.5127C43.6218 3.5127 45.2548 4.13707 46.5314 5.38523C47.8084 6.63398 48.4469 8.29957 48.4469 10.3832C48.4469 10.8629 48.4137 11.3095 48.3487 11.7228H38.4284C38.5101 12.6155 38.8373 13.3348 39.4105 13.8801C39.9834 14.426 40.7122 14.6991 41.5958 14.6991C42.7908 14.6991 43.6747 14.2029 44.2479 13.2108H47.9804C47.5873 14.5169 46.8263 15.5837 45.6966 16.4103C44.5672 17.2372 43.2 17.6505 41.5958 17.6505ZM53.775 5.76994V3.71103H50.3127V17.452H53.775V9.86248C53.775 8.78776 54.0489 7.96496 54.5975 7.39438C55.1457 6.82409 55.8868 6.53865 56.8195 6.53865C57.7529 6.53865 58.4895 6.82409 59.0295 7.39438C59.5698 7.96496 59.84 8.78776 59.84 9.86248V17.452H63.2776V9.36627C63.2776 7.53078 62.7867 6.09653 61.8043 5.06296C60.8221 4.02969 59.5534 3.51261 57.9983 3.51261C56.0499 3.51261 54.6424 4.26545 53.775 5.76994ZM100.815 7.28276C100.201 6.73716 99.4599 6.46437 98.5922 6.46437C97.7244 6.46437 97.0001 6.73716 96.4192 7.28276C95.838 7.82835 95.49 8.5562 95.3756 9.46543H101.809C101.76 8.5562 101.428 7.82835 100.815 7.28276ZM98.5431 17.6505C96.5624 17.6505 94.9497 17.0017 93.7059 15.7036C92.4616 14.4055 91.8398 12.6899 91.8398 10.5569C91.8398 8.42362 92.466 6.71659 93.7183 5.43491C94.9705 4.15353 96.5912 3.5127 98.5801 3.5127C100.569 3.5127 102.202 4.13707 103.479 5.38523C104.756 6.63398 105.394 8.29957 105.394 10.3832C105.394 10.8629 105.361 11.3095 105.296 11.7228H95.3756C95.4573 12.6155 95.7845 13.3348 96.3577 13.8801C96.9307 14.426 97.6594 14.6991 98.5431 14.6991C99.738 14.6991 100.622 14.2029 101.195 13.2108H104.928C104.535 14.5169 103.774 15.5837 102.644 16.4103C101.514 17.2372 100.147 17.6505 98.5431 17.6505ZM110.722 5.76994V3.71103H107.26V17.452H110.722V9.86248C110.722 8.78776 110.996 7.96496 111.544 7.39438C112.093 6.82409 112.834 6.53865 113.766 6.53865C114.7 6.53865 115.436 6.82409 115.976 7.39438C116.517 7.96496 116.787 8.78776 116.787 9.86248V17.452H120.224V9.36627C120.224 7.53078 119.734 6.09653 118.751 5.06296C117.769 4.02969 116.5 3.51261 114.945 3.51261C112.997 3.51261 111.589 4.26545 110.722 5.76994Z" fill="black"/>
</svg>
