<?xml version="1.0" encoding="utf-8"?>
<!-- Generator: Adobe Illustrator 26.3.1, SVG Export Plug-In . SVG Version: 6.00 Build 0)  -->
<svg version="1.1" id="Layer_1" xmlns="http://www.w3.org/2000/svg" xmlns:xlink="http://www.w3.org/1999/xlink" x="0px" y="0px"
	 viewBox="0 0 313.8 313.3" style="enable-background:new 0 0 313.8 313.3;" xml:space="preserve">
<style type="text/css">
	.st0{fill:#231F20;}
	.st1{fill:#FFFFFF;}
</style>
<g>
	<g>
		<path d="M156.5,77.2c43.9,0.1,79.5,35.6,79.6,79.5h55.2C291.3,82.3,231,22,156.5,22S21.7,82.3,21.7,156.8H77
			C77,112.8,112.6,77.3,156.5,77.2z M156.5,236.3c-24.5,0-47.6-11.3-62.6-30.6l-43.5,34c45.8,58.6,130.4,69.1,189,23.3
			c10.1-7.9,19-17.1,26.5-27.5l-43.5-34C207.5,223.3,182.9,236.3,156.5,236.3z"/>
		<g>
			<path d="M145.6,211v-75.5h-30.5V115h86v20.4h-30.5V211H145.6z"/>
		</g>
	</g>
</g>
</svg>
