<svg width="240" height="240" viewBox="0 0 240 240" fill="none" xmlns="http://www.w3.org/2000/svg">
<rect width="240" height="240" fill="white"/>
<path fill-rule="evenodd" clip-rule="evenodd" d="M120 180C86.8635 180 60 153.136 60 120C60 101.25 71.0109 85.3498 71.0109 85.3498L82.8769 93.8476C82.8769 93.8476 74.5944 105.951 74.5941 120C74.5938 142.592 91.095 161.329 112.702 164.819V149.94C99.2074 146.662 89.1884 134.502 89.188 120C95.9848 120 97.1098 120 103.782 120C103.782 128.956 111.044 136.217 120 136.217C128.956 136.217 136.217 128.956 136.217 120C136.217 118.244 135.937 116.551 135.421 114.967C133.373 108.69 127.6 104.096 120.714 103.798C120.477 103.788 120.239 103.782 120 103.782C112.726 103.782 106.281 100.235 102.301 94.7767C99.6649 91.1618 98.1087 86.7084 98.1087 81.8912L98.1749 80.1738C99.0499 68.8855 108.487 60 120 60C120.238 60 123.334 60.0014 123.571 60.0041C136.31 60.1524 145.236 64.2712 154.887 71.1803C170.091 82.0653 180 99.8761 180 120C180 153.136 153.136 180 120 180ZM127.297 164.819C148.905 161.327 165.406 142.592 165.406 120C165.406 109.145 161.596 99.1798 155.242 91.3674C147.713 82.111 135.701 74.7869 123.571 74.5998C123.334 74.5961 120.238 74.5943 120 74.5943C115.97 74.5943 112.702 77.8609 112.702 81.8912C112.702 85.9214 115.97 89.1881 120 89.1881C120.239 89.1881 120.477 89.1908 120.714 89.1962C127.028 89.3398 132.873 91.3827 137.699 94.7767C141.781 97.6461 145.135 101.481 147.429 105.951C149.591 110.164 150.811 114.939 150.811 120C150.811 134.502 140.791 146.662 127.297 149.94V164.819Z" fill="#7F56D9"/>
</svg>
